<!DOCTYPE svg PUBLIC "-//W3C//DTD SVG 20010904//EN" "http://www.w3.org/TR/2001/REC-SVG-20010904/DTD/svg10.dtd">
<svg version="1.0" xmlns="http://www.w3.org/2000/svg" width="1200px" height="1188px" viewBox="0 0 12000 11880" preserveAspectRatio="xMidYMid meet">
<g id="layer101" fill="#9a8477" stroke="none">
 <path d="M0 5940 l0 -5940 6000 0 6000 0 0 5940 0 5940 -6000 0 -6000 0 0 -5940z"/>
 </g>
<g id="layer102" fill="#ffffff" stroke="none">
 <path d="M0 5940 l0 -5940 6000 0 6000 0 0 5940 c0 5933 0 5940 -20 5940 -20 0 -20 -7 -20 -5935 l0 -5935 -5970 0 -5970 0 0 5935 c0 3950 -3 5935 -10 5935 -7 0 -10 -1987 -10 -5940z"/>
 <path d="M5655 11034 c-58 -4 -240 -20 -320 -29 -22 -2 -110 -16 -195 -29 -140 -23 -207 -37 -450 -90 -41 -9 -117 -31 -170 -48 -52 -17 -122 -39 -155 -50 -88 -29 -351 -127 -415 -155 -30 -13 -77 -34 -105 -46 -60 -26 -282 -138 -380 -192 -102 -56 -353 -217 -480 -309 -127 -91 -379 -292 -413 -329 l-23 -24 73 -6 c217 -18 794 -28 1037 -17 570 25 531 25 584 0 43 -20 47 -25 47 -57 0 -50 -21 -62 -105 -63 -87 0 -243 -23 -276 -40 -66 -35 -119 -83 -143 -132 -22 -44 -26 -65 -26 -137 0 -113 15 -217 49 -351 31 -121 74 -257 177 -560 107 -315 331 -975 425 -1255 34 -99 72 -193 85 -210 l24 -30 604 -3 604 -2 -4 692 c-6 981 -17 1235 -65 1545 -32 208 -66 300 -140 375 -46 46 -100 70 -185 83 -16 2 -58 9 -94 14 -36 6 -88 11 -115 11 -83 0 -118 43 -80 97 28 40 72 46 233 32 180 -16 780 -16 982 0 189 14 1833 33 2524 29 l538 -3 -58 53 c-60 54 -260 211 -411 322 -196 142 -517 331 -713 419 -41 19 -97 44 -125 56 -117 53 -146 65 -240 100 -55 20 -111 41 -125 47 -14 6 -65 24 -115 39 -49 16 -131 43 -180 59 -50 16 -122 36 -160 45 -39 8 -122 26 -185 40 -116 26 -392 74 -465 81 -22 2 -83 8 -135 14 -96 11 -625 21 -735 14z"/>
 <path d="M2259 9448 c-121 -129 -317 -361 -375 -445 -58 -83 -128 -178 -134 -183 -3 -3 -26 -39 -50 -80 -25 -41 -48 -76 -52 -78 -5 -2 -8 -8 -8 -13 0 -5 -17 -37 -38 -71 -67 -110 -175 -317 -252 -483 -23 -49 -53 -113 -66 -141 -13 -28 -24 -54 -24 -58 0 -5 -7 -22 -15 -39 -8 -18 -26 -63 -39 -102 -13 -38 -34 -97 -46 -130 -12 -33 -23 -67 -25 -75 -2 -8 -19 -67 -38 -130 -33 -107 -74 -268 -111 -435 -18 -81 -59 -375 -77 -550 -16 -155 -16 -714 -1 -870 50 -494 138 -894 284 -1285 27 -74 57 -153 65 -174 14 -40 27 -68 109 -244 24 -52 44 -95 44 -97 0 -20 276 -495 351 -605 153 -224 293 -398 503 -623 102 -109 132 -135 107 -90 -6 10 -22 74 -36 143 -13 69 -34 163 -45 210 -12 47 -29 123 -39 170 -10 47 -26 114 -35 150 -21 86 -56 305 -56 353 0 46 30 81 63 72 31 -9 60 -47 107 -140 71 -141 83 -158 175 -251 192 -193 366 -268 680 -294 66 -6 494 -14 950 -20 457 -5 927 -13 1046 -16 119 -4 223 -4 232 -1 13 5 9 22 -24 109 -22 57 -46 121 -54 143 -13 38 -55 154 -231 635 -42 113 -95 259 -119 325 -24 66 -56 152 -70 190 -15 39 -37 99 -50 135 -34 93 -79 216 -102 280 -11 30 -41 114 -67 185 -26 72 -53 146 -61 165 -8 19 -31 80 -50 135 -19 55 -40 109 -45 120 -5 11 -30 79 -55 150 -25 72 -49 139 -54 150 -5 11 -19 47 -30 80 -11 33 -32 92 -46 130 -15 39 -38 102 -51 140 -13 39 -28 79 -33 90 -5 11 -19 47 -31 80 -46 129 -69 193 -95 260 -14 39 -57 156 -95 260 -37 105 -94 260 -124 345 -31 85 -61 164 -66 175 -5 11 -30 79 -56 150 -25 72 -59 164 -74 205 -15 41 -49 134 -74 205 -26 72 -52 141 -57 155 -6 14 -17 45 -25 70 -8 25 -19 54 -24 65 -5 11 -28 72 -50 135 -22 63 -45 124 -50 135 -5 11 -30 76 -54 145 -25 69 -59 163 -76 210 -18 47 -42 114 -55 150 -51 146 -173 396 -233 478 -45 63 -146 182 -153 182 -3 0 -28 18 -55 39 -83 66 -223 117 -400 146 l-40 6 -125 -133z"/>
 <path d="M9520 9499 c22 -72 48 -236 86 -539 14 -113 30 -236 34 -275 26 -205 1 -294 -75 -265 -32 12 -40 32 -81 210 -42 181 -66 256 -112 344 -46 88 -147 191 -235 240 -95 53 -289 113 -411 128 -68 8 -375 12 -936 14 -975 3 -1054 -2 -1283 -70 -48 -15 -95 -33 -105 -41 -127 -102 -139 -115 -165 -173 -50 -111 -77 -243 -88 -427 -5 -99 -8 -684 -7 -1398 3 -1078 5 -1229 18 -1237 19 -12 495 -12 905 0 171 5 468 14 660 19 382 11 465 19 599 57 230 65 324 208 350 534 11 142 11 145 38 157 34 17 75 2 87 -31 5 -13 14 -120 20 -237 24 -470 57 -808 96 -955 17 -64 20 -151 6 -173 -5 -8 -23 -14 -41 -14 -26 0 -45 13 -108 76 -42 42 -90 86 -105 98 -42 32 -208 67 -365 79 -75 5 -587 11 -1137 12 l-999 3 -13 -25 c-10 -20 -13 -311 -13 -1408 l0 -1384 313 5 c1397 18 1983 29 2112 37 418 27 733 150 827 322 13 22 28 50 35 62 12 23 43 195 48 266 6 95 20 126 60 130 36 4 44 0 62 -27 19 -29 21 -53 42 -703 5 -168 10 -307 10 -309 2 -9 65 57 119 124 31 39 59 72 62 75 20 20 135 168 182 234 71 100 208 305 208 310 0 3 17 31 38 63 37 56 80 132 168 298 47 89 170 376 228 530 21 55 44 116 51 135 18 46 91 283 105 340 30 119 63 278 85 408 13 79 26 146 29 150 2 4 12 84 21 177 9 94 19 199 23 235 14 148 5 591 -17 810 -12 118 -26 231 -31 250 -5 19 -16 80 -24 135 -33 208 -130 587 -191 745 -8 19 -28 73 -45 120 -40 108 -78 207 -95 245 -8 17 -35 77 -60 135 -26 58 -70 148 -98 200 -27 52 -64 122 -82 155 -17 33 -49 87 -70 120 -21 33 -48 76 -61 95 -100 160 -190 284 -341 471 -56 69 -150 179 -210 245 -59 65 -116 127 -125 138 -15 17 -15 12 2 -45z"/>
 <path d="M4638 6509 c-20 -11 -23 -40 -9 -67 5 -9 37 -105 71 -212 34 -107 75 -233 90 -280 16 -47 68 -206 116 -355 48 -148 124 -382 169 -520 45 -137 124 -378 175 -535 51 -157 120 -370 155 -475 34 -104 95 -291 135 -415 40 -124 94 -290 121 -370 l48 -145 0 1693 1 1692 -527 0 c-340 0 -534 -4 -545 -11z"/>
 <path d="M3469 2426 c-2 -2 -44 -7 -94 -10 -225 -15 -483 -36 -515 -42 -66 -12 -175 -47 -222 -70 -26 -13 -56 -24 -67 -24 -53 0 -30 -26 161 -183 144 -119 299 -227 573 -402 121 -77 488 -275 510 -275 2 0 46 -20 97 -44 51 -25 125 -57 163 -71 150 -55 294 -105 380 -130 50 -14 110 -33 135 -41 61 -19 321 -81 395 -93 33 -6 128 -20 210 -31 83 -11 184 -25 225 -30 225 -32 790 -31 1025 0 421 56 450 61 635 106 278 66 665 193 839 275 36 17 110 51 165 76 56 25 106 48 111 53 6 4 69 38 140 75 72 37 159 87 195 110 309 198 397 259 543 376 62 50 167 140 235 202 105 95 120 112 104 118 -24 9 -247 37 -387 49 -96 9 -5547 14 -5556 6z"/>
 </g>

</svg>